<?xml version="1.0" encoding="UTF-8"?>
<svg id="Layer_2" data-name="Layer 2" xmlns="http://www.w3.org/2000/svg" viewBox="0 0 39.4 60.67">
  <defs>
    <style>
      .cls-1 {
        fill: #51bdc2;
      }

      .cls-2 {
        fill: #169f95;
      }
    </style>
  </defs>
  <g id="Layer_2-2" data-name="Layer 2">
    <g id="Layer_2-2" data-name="Layer 2-2">
      <path class="cls-2" d="M16.13,39.42c-3.61,5.19-7.15,10.32-8.37,16.64-16.77-13.45-2.54-30.56,6.95-43.43,1.63,8.75-1.08,18.53,1.41,26.81h0Z"/>
      <path class="cls-1" d="M16.13,39.44c-2.49-8.28,.21-18.05-1.41-26.81,2.55-3.78,4.53-7.81,5.2-12.64,15.05,11.4,6.13,28.08-3.77,39.43h0Z"/>
      <path class="cls-1" d="M25.2,41.01c3.98-5.42,7.69-10.81,9.94-17.21,6.93,12.42,6.44,30.52-9.1,35.65-.05-6.17,.97-12.45-.84-18.44Z"/>
      <path class="cls-2" d="M25.2,41.01c1.82,6.02,.79,12.27,.84,18.44-19.64,5.85-6.12-10.98-.84-18.44Z"/>
    </g>
  </g>
</svg>